HIERARCHY
ROOT Hips
{
  OFFSET 1.44925e-005 102.336 -0.101585
  CHANNELS 6 Xposition Yposition Zposition Zrotation Xrotation Yrotation
  JOINT LeftUpLeg
  {
    OFFSET 8.9458 -8.66707 0.101652
    CHANNELS 3 Zrotation Xrotation Yrotation
    JOINT LeftLeg
    {
      OFFSET 0 -44.4227 1.3727
      CHANNELS 3 Zrotation Xrotation Yrotation
      JOINT LeftFoot
      {
        OFFSET -0.253549 -42.0924 -1.46059
        CHANNELS 3 Zrotation Xrotation Yrotation
        JOINT LeftToes
        {
          OFFSET -0.04 -4.41509 8.4991
          CHANNELS 3 Zrotation Xrotation Yrotation
          End Site
          {
            OFFSET 0.08 -0.047448 9.77979
          }
        }
      }
    }
  }
  JOINT Spine
  {
    OFFSET 0 11.8905 0
    CHANNELS 3 Zrotation Xrotation Yrotation
    JOINT Spine1
    {
      OFFSET 0 25.6574 0.127663
      CHANNELS 3 Zrotation Xrotation Yrotation
      JOINT RightShoulder
      {
        OFFSET -8.99 -0.362252 -0.22
        CHANNELS 3 Zrotation Xrotation Yrotation
        JOINT RightArm
        {
          OFFSET -10.2827 -0.00338 0.322123
          CHANNELS 3 Zrotation Xrotation Yrotation
          JOINT RightForeArm
          {
            OFFSET -26.364 0.099144 -1.42434
            CHANNELS 3 Zrotation Xrotation Yrotation
            JOINT RightHand
            {
              OFFSET -22.0324 0.085362 1.02216
              CHANNELS 3 Zrotation Xrotation Yrotation
              End Site
              {
                OFFSET -13.3284 -0.6 1.50291
              }
            }
          }
        }
      }
      JOINT LeftShoulder1
      {
        OFFSET 8.99 -0.362252 -0.22
        CHANNELS 3 Zrotation Xrotation Yrotation
        JOINT LeftArm
        {
          OFFSET 10.2827 -0.00337999 0.322123
          CHANNELS 3 Zrotation Xrotation Yrotation
          JOINT LeftForeArm
          {
            OFFSET 26.2597 0.099144 -1.42434
            CHANNELS 3 Zrotation Xrotation Yrotation
            JOINT LeftHand
            {
              OFFSET 22.0902 0.085362 1.02216
              CHANNELS 3 Zrotation Xrotation Yrotation
              End Site
              {
                OFFSET 13.419 -0.6 1.50291
              }
            }
          }
        }
      }
      JOINT Head
      {
        OFFSET 0 8.73416 0.011341
        CHANNELS 3 Zrotation Xrotation Yrotation
        End Site
        {
          OFFSET -0.29 12.7742 2.51395
        }
      }
    }
  }
  JOINT RightUpLeg
  {
    OFFSET -8.9458 -8.66707 0.101652
    CHANNELS 3 Zrotation Xrotation Yrotation
    JOINT RightLeg
    {
      OFFSET 0 -44.4227 1.3727
      CHANNELS 3 Zrotation Xrotation Yrotation
      JOINT RightFoot
      {
        OFFSET 0.253549 -42.0924 -1.46059
        CHANNELS 3 Zrotation Xrotation Yrotation
        JOINT RightToes
        {
          OFFSET 0.04 -4.41509 8.4991
          CHANNELS 3 Zrotation Xrotation Yrotation
          End Site
          {
            OFFSET -0.08 -0.137448 9.77979
          }
        }
      }
    }
  }
}
MOTION
Frames:	14
Frame Time:	0.0333333
27.4998 101.775 5.57905 -6.48402 1.68211 -92.1143 1.30741 4.52775 3.26521 1.2207 15.6519 20.3163 -4.8901 -15.8804 -0.276807 -1.33188e-009 8.75229e-006 -1.47566e-008 3.55933 9.42132 -0.318603 -2.06555 -0.329555 0.510964 34.4318 1.74066 0.272093 43.4527 -4.59647 12.7279 4.57846 17.2665 23.8693 -9.26898 9.54138 -0.579207 -44.4787 3.6133 -3.56015 -25.9016 -19.9506 2.0131 6.65883 32.5275 -36.5114 5.82328 9.61819 -0.917488 1.07579 -5.85933 -3.71144 1.18478 1.20873 -3.34026 0.257892 11.942 -11.3735 3.25294 -10.811 -0.107576 0.0462048 0.000530889 0.662642 
27.1761 101.799 5.44584 -6.23979 1.65771 -92.2319 1.40066 4.69519 3.4682 1.15305 15.2418 20.1858 -4.98476 -15.8562 -0.282814 -1.33188e-009 8.75229e-006 -1.47566e-008 3.73802 9.21433 -0.243345 -2.22498 -0.313517 0.614924 34.4726 1.7425 0.267532 43.3076 -4.57121 12.906 4.41448 17.6283 24.1045 -9.73416 9.50696 -0.376033 -44.532 3.6217 -3.56845 -25.9498 -18.9418 2.04854 5.84443 32.1372 -34.574 5.82328 9.61819 -0.917488 1.24399 -6.32631 -3.76079 1.29308 1.23315 -3.19997 0.183354 11.7759 -11.4164 3.09335 -10.8757 -0.104771 0.0462048 0.000530889 0.662642 
26.9087 101.808 5.34429 -6.0197 1.60346 -92.3243 1.40017 4.80592 3.49789 1.12734 14.9078 20.2214 -5.01146 -15.849 -0.284482 -1.33188e-009 8.75229e-006 -1.47566e-008 3.75105 9.11874 -0.162149 -2.16174 -0.30417 0.687025 34.4941 1.74526 0.261893 43.0729 -4.04555 12.8143 4.2218 17.8282 23.5675 -9.42022 9.53784 -0.620956 -44.665 3.63604 -3.57617 -25.9957 -17.6286 2.32363 4.3695 30.9517 -31.9933 5.82328 9.61819 -0.917488 1.38328 -6.90425 -3.78603 1.32875 1.13152 -3.11841 0.101768 11.8505 -11.3543 3.25476 -11.1003 -0.0955098 0.0462048 0.000530889 0.662642 
26.6705 101.805 5.26177 -5.88569 1.57243 -92.3184 1.37505 4.91898 3.41861 1.1795 14.6887 20.3118 -5.05888 -15.8655 -0.288601 -1.33188e-009 8.75229e-006 -1.47566e-008 3.66866 9.16204 -0.12129 -1.94138 -0.333605 0.684043 34.5919 1.7512 0.267955 42.7145 -3.14217 12.4348 4.2856 17.5904 22.3322 -8.44788 9.60193 -0.985487 -44.8527 3.65278 -3.58031 -26.1221 -15.827 2.70886 2.75466 29.3973 -28.8715 5.82328 9.61819 -0.917488 1.45926 -7.42459 -3.78371 1.36911 1.14533 -3.06546 0.0615844 11.848 -11.3385 3.4211 -11.3286 -0.0852605 0.0462048 0.000530889 0.662642 
26.4497 101.8 5.18952 -5.79585 1.56967 -92.2276 1.3899 5.01781 3.37801 1.24686 14.5546 20.2912 -5.16497 -15.9086 -0.298076 -1.33188e-009 8.75229e-006 -1.47566e-008 3.61965 9.24952 -0.116257 -1.75261 -0.349273 0.64548 34.8443 1.76112 0.268579 42.3472 -2.85591 11.857 4.76796 17.988 20.3081 -7.84699 9.62453 -0.982814 -44.9995 3.66565 -3.58373 -26.3842 -13.571 3.08471 1.32883 27.9507 -25.4211 5.82328 9.61819 -0.917488 1.51546 -7.82378 -3.78599 1.42983 1.25904 -3.01945 0.0711888 11.7414 -11.4693 3.32178 -11.4663 -0.0838894 0.0462048 0.000530889 0.662642 
26.2478 101.801 5.14025 -5.60319 1.55657 -92.1689 1.42585 5.02766 3.43133 1.24265 14.3661 20.1729 -5.22419 -15.9523 -0.304792 -1.33188e-009 8.75229e-006 -1.47566e-008 3.73279 9.2084 -0.106261 -1.80377 -0.313101 0.658567 35.2025 1.76548 0.245296 42.2962 -4.88793 11.2436 5.66756 20.8826 17.3048 -8.01062 9.60431 -0.751276 -45.0332 3.6687 -3.58395 -26.5617 -12.5587 3.48402 -0.102566 28.0506 -21.8408 5.82328 9.61819 -0.917488 1.56697 -8.15819 -3.83238 1.42499 1.22397 -3.02252 0.135001 11.6859 -11.5629 3.2309 -11.5903 -0.078934 0.0462048 0.000530889 0.662642 
26.0511 101.811 5.11422 -5.31434 1.50515 -92.1664 1.44038 5.00375 3.53122 1.16131 14.0486 20.0342 -5.1692 -15.9701 -0.307404 -1.33188e-009 8.75229e-006 -1.47566e-008 3.90857 9.01151 -0.0626461 -2.00484 -0.206696 0.735661 35.5802 1.7645 0.208141 42.7009 -10.0526 10.6885 6.9326 26.936 13.3358 -8.00974 9.60689 -0.795497 -44.9757 3.65945 -3.57775 -26.295 -15.2821 4.02885 -1.94119 31.6811 -18.1321 5.82328 9.61819 -0.917488 1.61376 -8.43979 -3.95792 1.33451 1.05927 -3.08504 0.222841 11.644 -11.4949 3.35325 -11.7535 -0.0739555 0.0462048 0.000530889 0.662642 
25.8436 101.825 5.09338 -5.1018 1.44577 -92.1175 1.44325 5.08456 3.62204 1.08191 13.6894 19.8758 -5.09928 -15.9736 -0.308609 -1.33188e-009 8.75229e-006 -1.47566e-008 3.91515 8.80263 0.0020395 -2.00841 -0.00763459 0.792318 35.9072 1.76585 0.182372 43.2552 -16.7658 10.1661 8.46498 34.3552 8.79306 -7.07133 9.66512 -1.20218 -44.9517 3.65506 -3.56942 -25.7685 -19.3676 4.7735 -3.98394 36.2833 -14.388 5.82328 9.61819 -0.917488 1.64397 -8.65003 -4.12268 1.27327 1.03762 -3.11924 0.263105 11.4948 -11.4921 3.41372 -11.8773 -0.072548 0.0462048 0.000530889 0.662642 
25.6443 101.837 5.08662 -4.99276 1.42791 -92.0025 1.45294 5.22598 3.67136 1.06445 13.4001 19.7313 -5.10124 -15.9931 -0.308677 -1.33188e-009 8.75229e-006 -1.47566e-008 3.79748 8.67549 0.0494154 -1.74458 0.231889 0.778428 36.1269 1.773 0.178738 43.4956 -22.0673 9.51643 9.97319 40.1322 4.4288 -5.79386 9.73234 -1.7009 -45.0373 3.66452 -3.57494 -25.1784 -22.7465 5.73941 -5.80261 40.0342 -11.0997 5.82328 9.61819 -0.917488 1.61832 -8.87132 -4.19241 1.30055 1.14004 -3.06792 0.236587 11.3412 -11.702 3.30297 -11.9076 -0.0757688 0.0462048 0.000530889 0.662642 
25.4883 101.842 5.12861 -4.836 1.43975 -91.9137 1.43802 5.23213 3.6555 1.07885 13.2193 19.6995 -5.10239 -16.0405 -0.307848 -1.33188e-009 8.75229e-006 -1.47566e-008 3.82489 8.6111 0.0563234 -1.54021 0.368121 0.742505 36.2548 1.7814 0.186165 43.2634 -24.6515 8.57734 11.0692 42.9178 1.04527 -5.18624 9.76798 -2.14848 -45.1042 3.67864 -3.59204 -24.7289 -24.6436 6.88623 -7.07476 42.3757 -8.7845 5.82328 9.61819 -0.917488 1.53999 -9.19317 -4.08862 1.31192 1.08047 -3.00877 0.206573 11.3416 -11.8533 3.38901 -11.9456 -0.0715909 0.0462048 0.000530889 0.662642 
25.3678 101.836 5.22118 -4.61787 1.43103 -91.8735 1.37691 5.08905 3.60741 1.06342 13.168 19.7537 -5.0312 -16.1234 -0.306357 -1.33188e-009 8.75229e-006 -1.47566e-008 3.99515 8.62688 0.0417327 -1.53176 0.317351 0.731414 36.3851 1.78591 0.187401 42.6766 -25.7191 7.3088 11.6911 43.8831 -1.06224 -5.31686 9.77654 -2.48302 -45.0084 3.67502 -3.59957 -24.531 -25.4111 8.14649 -7.71417 43.5533 -7.58317 5.82328 9.61819 -0.917488 1.50352 -9.50109 -3.89892 1.23529 0.882035 -3.01678 0.200045 11.4073 -11.7747 3.72378 -12.0873 -0.055156 0.0462048 0.000530889 0.662642 
25.2354 101.818 5.33078 -4.50271 1.41268 -91.8361 1.31573 5.02268 3.60618 1.01579 13.2104 19.7633 -4.95578 -16.2461 -0.304432 -1.33188e-009 8.75229e-006 -1.47566e-008 4.05317 8.76942 0.0483477 -1.44401 0.154753 0.727365 36.5436 1.78636 0.176309 41.8108 -26.3764 5.75398 11.9556 44.2617 -1.9815 -5.55236 9.77623 -2.62747 -44.9068 3.66639 -3.59831 -24.4086 -25.5737 9.45431 -7.77566 43.8613 -7.36944 5.82328 9.61819 -0.917488 1.58195 -9.58009 -3.73619 1.16931 0.845413 -3.03124 0.157346 11.4049 -11.747 3.83123 -12.2239 -0.0472229 0.0462048 0.000530889 0.662642 
25.0801 101.805 5.44576 -4.54769 1.44387 -91.8216 1.29118 5.17605 3.64997 0.982802 13.2048 19.7315 -4.93613 -16.3724 -0.302241 -1.33188e-009 8.75229e-006 -1.47566e-008 4.00718 8.95246 0.0765991 -1.15682 0.0632537 0.70923 36.6274 1.78487 0.172808 40.8563 -26.4955 4.17076 11.9367 44.0797 -1.94694 -5.49236 9.78085 -2.71005 -45.0687 3.68651 -3.61256 -24.1015 -25.3357 10.6315 -7.48375 43.4582 -7.82251 5.82328 9.61819 -0.917488 1.70656 -9.44857 -3.58901 1.19403 1.00085 -2.98647 0.0494564 11.4187 -11.8962 3.70632 -12.2262 -0.0522055 0.0462048 0.000530889 0.662642 
24.9663 101.802 5.57755 -4.64747 1.50049 -91.851 1.24815 5.41104 3.64488 0.986468 13.1118 19.7592 -4.90862 -16.452 -0.299754 -1.33188e-009 8.75229e-006 -1.47566e-008 4.09169 8.97991 0.0671899 -0.966134 0.265013 0.678785 36.5635 1.78265 0.183608 40.2243 -26.2462 3.05361 11.8 43.5772 -1.43863 -5.18485 9.79557 -2.92222 -45.3566 3.72128 -3.63572 -23.7543 -24.8608 11.2883 -7.19168 42.6814 -8.40986 5.82328 9.61819 -0.917488 1.76737 -9.34144 -3.43799 1.20274 1.11926 -2.96086 -0.0495915 11.5315 -11.8833 3.88955 -12.226 -0.044712 0.0462048 0.000530889 0.662642 
